<svg xmlns="http://www.w3.org/2000/svg" viewBox="0 0 640 512"><path fill="#6772E5" d="M320 0C143.5 0 0 143.5 0 320c0 176.5 143.5 320 320 320s320-143.5 320-320C640 143.5 496.5 0 320 0zm0 576c-141.4 0-256-114.6-256-256S178.6 64 320 64s256 114.6 256 256-114.6 256-256 256zm-64-384h128c35.3 0 64 28.7 64 64s-28.7 64-64 64H256V192zm0 128h64c17.7 0 32-14.3 32-32s-14.3-32-32-32h-64v64zm-64 64h128c35.3 0 64 28.7 64 64s-28.7 64-64 64H192v-64zm0 128h128c35.3 0 64 28.7 64 64s-28.7 64-64 64H192v-64zm0-128h128c35.3 0 64 28.7 64 64s-28.7 64-64 64H192v-64zm0-128h128c35.3 0 64 28.7 64 64s-28.7 64-64 64H192v-64zm0-128h128c35.3 0 64 28.7 64 64s-28.7 64-64 64H192V192zm0-128h128c35.3 0 64 28.7 64 64s-28.7 64-64 64H192V64z"/></svg>